<svg width="1440" height="598" viewBox="0 0 1440 598" fill="none" xmlns="http://www.w3.org/2000/svg">
<path d="M548.165 110.975C229.652 110.975 44.5668 28.4936 -8.55255 0C-11.4193 149.3 -61.3517 639.951 -32.5 594C-4.74462 549.795 218.146 503.655 359.625 478.402C437.19 464.557 516.086 462.552 594.605 469.092C772.188 483.885 1094.5 509.114 1162.6 503.387C1267.02 503.787 1400.38 488.557 1454 480.892C1452.65 365.085 1449.95 114.774 1449.95 39.991C1388.07 18.7741 1255.07 8.81364 1130.92 13.4689C960.174 19.871 790.025 84.1196 620.471 105.238C592.314 108.745 567.082 110.975 548.165 110.975Z" fill="#F6F8FD"/>
</svg>
