<svg width="54" height="54" viewBox="0 0 54 54" fill="none" xmlns="http://www.w3.org/2000/svg">
<g clip-path="url(#clip0_58_637)">
<path d="M27 0C12.1122 0 0 12.1122 0 27C0 41.8878 12.1122 54 27 54C41.8878 54 54 41.8878 54 27C54 12.1122 41.8878 0 27 0ZM27 48.6C15.0903 48.6 5.4 38.9097 5.4 27C5.4 15.0903 15.0903 5.4 27 5.4C38.9097 5.4 48.6 15.0903 48.6 27C48.6 38.9097 38.9097 48.6 27 48.6Z" fill="#1074D8"/>
<path d="M17.55 26.9999C19.7868 26.9999 21.6 25.1867 21.6 22.9499C21.6 20.7131 19.7868 18.8999 17.55 18.8999C15.3132 18.8999 13.5 20.7131 13.5 22.9499C13.5 25.1867 15.3132 26.9999 17.55 26.9999Z" fill="#1074D8"/>
<path d="M36.4311 26.9621C38.6575 26.9621 40.4622 25.1573 40.4622 22.931C40.4622 20.7047 38.6575 18.8999 36.4311 18.8999C34.2048 18.8999 32.4 20.7047 32.4 22.931C32.4 25.1573 34.2048 26.9621 36.4311 26.9621Z" fill="#1074D8"/>
<path d="M27 43.1999C37.8 43.1999 40.5 32.3999 40.5 32.3999H13.5C13.5 32.3999 16.2 43.1999 27 43.1999Z" fill="#1074D8"/>
</g>
<defs>
<clipPath id="clip0_58_637">
<rect width="54" height="54" fill="white"/>
</clipPath>
</defs>
</svg>
